{
  "accessors": [
    {
      "bufferView": 2,
      "componentType": 5126,
      "count": 1329,
      "max": [
        5.558499813079834,
        3.6649699211120605,
        0.30173298716545105
      ],
      "min": [
        -5.558499813079834,
        -3.6649699211120605,
        -0.30173400044441223
      ],
      "type": "VEC3"
    },
    {
      "bufferView": 2,
      "byteOffset": 15948,
      "componentType": 5126,
      "count": 1329,
      "max": [
        1.0,
        1.0,
        1.0
      ],
      "min": [
        -1.0,
        -1.0,
        -1.0
      ],
      "type": "VEC3"
    },
    {
      "bufferView": 3,
      "componentType": 5126,
      "count": 1329,
      "max": [
        0.9882352948188782,
        0.9137254953384399,
        0.7764706015586853,
        1.0
      ],
      "min": [
        0.0,
        0.0,
        0.0,
        1.0
      ],
      "type": "VEC4"
    },
    {
      "bufferView": 1,
      "componentType": 5126,
      "count": 1329,
      "max": [
        0.9993788599967957,
        0.8408242464065552
      ],
      "min": [
        0.0006211999570950866,
        0.0006211999570950866
      ],
      "type": "VEC2"
    },
    {
      "bufferView": 0,
      "componentType": 5125,
      "count": 1401,
      "type": "SCALAR"
    }
  ],
  "asset": {
    "extras": {
      "author": "amogusstrikesback (https://sketchfab.com/amogusstrikesback)",
      "license": "CC-BY-4.0 (http://creativecommons.org/licenses/by/4.0/)",
      "source": "https://sketchfab.com/3d-models/hiberworld-alternate-goal-finish-line-4b189ebf10a944399b884fcc6784cabf",
      "title": "hiberworld alternate goal (finish line)"
    },
    "generator": "Sketchfab-13.83.0",
    "version": "2.0"
  },
  "bufferViews": [
    {
      "buffer": 0,
      "byteLength": 5604,
      "name": "floatBufferViews",
      "target": 34963
    },
    {
      "buffer": 0,
      "byteLength": 10632,
      "byteOffset": 5604,
      "byteStride": 8,
      "name": "floatBufferViews",
      "target": 34962
    },
    {
      "buffer": 0,
      "byteLength": 31896,
      "byteOffset": 16236,
      "byteStride": 12,
      "name": "floatBufferViews",
      "target": 34962
    },
    {
      "buffer": 0,
      "byteLength": 21264,
      "byteOffset": 48132,
      "byteStride": 16,
      "name": "floatBufferViews",
      "target": 34962
    }
  ],
  "buffers": [
    {
      "byteLength": 69396,
      "uri": "scene.bin"
    }
  ],
  "images": [
    {
      "uri": "textures/Material.006_baseColor.png"
    }
  ],
  "materials": [
    {
      "doubleSided": true,
      "name": "Material.006",
      "pbrMetallicRoughness": {
        "baseColorTexture": {
          "index": 0
        },
        "metallicFactor": 0.0,
        "roughnessFactor": 0.8211145618000169
      }
    }
  ],
  "meshes": [
    {
      "name": "GPL_goal_02_Material.006_0",
      "primitives": [
        {
          "attributes": {
            "COLOR_0": 2,
            "NORMAL": 1,
            "POSITION": 0,
            "TEXCOORD_0": 3
          },
          "indices": 4,
          "material": 0,
          "mode": 4
        }
      ]
    }
  ],
  "nodes": [
    {
      "children": [
        1
      ],
      "matrix": [
        1.0,
        0.0,
        0.0,
        0.0,
        0.0,
        2.220446049250313e-16,
        -1.0,
        0.0,
        0.0,
        1.0,
        2.220446049250313e-16,
        0.0,
        0.0,
        0.0,
        0.0,
        1.0
      ],
      "name": "Sketchfab_model"
    },
    {
      "children": [
        2
      ],
      "matrix": [
        0.009999999776482582,
        0.0,
        0.0,
        0.0,
        0.0,
        0.0,
        0.009999999776482582,
        0.0,
        0.0,
        -0.009999999776482582,
        0.0,
        0.0,
        0.0,
        0.0,
        0.0,
        1.0
      ],
      "name": "finish line.fbx"
    },
    {
      "children": [
        3
      ],
      "name": "RootNode"
    },
    {
      "children": [
        4
      ],
      "matrix": [
        100.0,
        0.0,
        0.0,
        0.0,
        0.0,
        99.9999999999999,
        4.371138828673792e-06,
        0.0,
        0.0,
        -4.371138828673792e-06,
        99.9999999999999,
        0.0,
        0.0,
        0.0,
        0.0,
        1.0
      ],
      "name": "GPL_goal_02"
    },
    {
      "mesh": 0,
      "name": "GPL_goal_02_Material.006_0"
    }
  ],
  "samplers": [
    {
      "magFilter": 9729,
      "minFilter": 9987,
      "wrapS": 10497,
      "wrapT": 10497
    }
  ],
  "scene": 0,
  "scenes": [
    {
      "name": "Sketchfab_Scene",
      "nodes": [
        0
      ]
    }
  ],
  "textures": [
    {
      "sampler": 0,
      "source": 0
    }
  ]
}
